<?xml version="1.0" encoding="UTF-8"?>
<svg id="Layer_2" data-name="Layer 2" xmlns="http://www.w3.org/2000/svg" viewBox="0 0 137.76 137.76">
  <defs>
    <style>
      .cls-1 {
        fill: #222020;
      }

      .cls-2 {
        fill: #f9b9b9;
      }

      .cls-3 {
        fill: #fdfdfd;
      }

      .cls-4 {
        fill: #8d3f40;
      }

      .cls-5 {
        fill: #cc5e5e;
      }
    </style>
  </defs>
  <g id="Layer_1-2" data-name="Layer 1">
    <g>
      <path class="cls-4" d="M137.74,28.76v7.42c-.48,.26-.22,.71-.23,1.06-.11,6.26-.18,12.52-.3,18.78-.29,15.83-.61,31.65-.91,47.48-.13,6.74-.23,13.48-.34,20.22,0,.51,.11,.98-.71,1.09-3.31,.43-6.61,.94-9.92,1.41-7.55,1.09-15.11,2.17-22.66,3.26-6.25,.9-12.51,1.82-18.76,2.72-5.23,.75-10.47,1.48-15.7,2.23-5.31,.76-10.62,1.53-15.93,2.33-1.93,.29-3.9,.38-5.78,.96h-.24c-.38-.2-.77-.38-1.13-.61-6.84-4.27-13.68-8.54-20.51-12.82-7.78-4.86-15.56-9.73-23.34-14.58-.45-.28-.65-.58-.64-1.15,.12-5.3,.21-10.6,.29-15.91,.26-16.43,.51-32.85,.76-49.28,.15-9.69,.29-19.38,.45-29.07,0-.32-.19-.74,.29-.93,.05,.06,.08,.14,.15,.18,6.26,3.86,12.53,7.73,18.8,11.58,8.37,5.14,16.75,10.28,25.13,15.41,.61,.37,1.21,.71,2.01,.59,3.68-.57,7.36-1.1,11.05-1.62,4.2-.59,8.4-1.14,12.6-1.74,4.27-.6,8.54-1.25,12.82-1.86,4.2-.59,8.4-1.15,12.6-1.74,3.8-.53,7.61-1.08,11.41-1.62,3.57-.51,7.14-1.01,10.71-1.52,3.76-.53,7.53-1.03,11.29-1.61,1.94-.3,3.92-.4,5.82-.95,.22,0,.45,0,.67,0,.1,.08,.19,.16,.29,.24Zm-2.62,94.85c-.07-2.91,.08-5.82,.14-8.73,.27-13.24,.49-26.49,.73-39.73,.14-7.9,.26-15.8,.4-23.69,.12-6.9,.22-13.8,.37-20.7,.02-.86-.24-1.12-1.07-1-2.15,.33-4.3,.62-6.45,.92-7.1,.98-14.19,1.93-21.29,2.94-7.05,1-14.09,2.05-21.14,3.05-5.41,.77-10.83,1.46-16.24,2.23-7.09,1.01-14.16,2.07-21.25,3.05-.71,.1-.89,.25-.9,.97-.12,7.62-.3,15.24-.42,22.86-.13,8.06-.21,16.12-.33,24.18-.23,15.16-.46,30.32-.75,45.48-.02,1.02,.35,1.11,1.15,1,1.14-.16,2.29-.27,3.43-.4,.29,.38,.42,.2,.5-.15,.95-.1,1.88-.39,2.85-.34,.29,.39,.42,.21,.5-.14,.39-.04,.78-.07,1.17-.11,.28,.39,.42,.23,.5-.13,.39-.04,.78-.07,1.17-.11,.28,.39,.42,.23,.5-.13,2.63-.39,5.26-.81,7.9-1.18,3.26-.46,6.53-.88,9.8-1.31,.29,.38,.42,.21,.5-.14,2.07-.28,4.14-.55,6.2-.83,.28,.39,.42,.23,.5-.13,1.49-.22,2.97-.46,4.47-.67,3.29-.46,6.59-.89,9.89-1.34,.29,.38,.42,.2,.5-.15,2.07-.28,4.14-.55,6.2-.83,.28,.39,.42,.23,.5-.13l1.17-.11c.28,.39,.42,.23,.5-.13,1.49-.22,2.97-.47,4.47-.67,3.29-.46,6.59-.89,9.89-1.34,.29,.38,.42,.2,.5-.15,.39-.03,.79-.07,1.18-.1,.29,.38,.42,.21,.5-.14,3.84-.56,7.67-1.12,11.51-1.69,.1,.13,.23,.2,.35,.06,.12-.14,.03-.26-.11-.34Z"/>
      <path class="cls-3" d="M137.74,28.76c-.1-.08-.19-.16-.29-.24-.09-.35-.38-.42-.67-.49-3.97-2.44-7.93-4.89-11.92-7.31-10.67-6.48-21.35-12.94-32.04-19.4-.47-.28-.92-.61-1.55-.52-1.77,.28-3.55,.52-5.32,.77-8.76,1.24-17.52,2.47-26.28,3.7-8.29,1.16-16.58,2.32-24.87,3.48-7.74,1.08-15.47,2.16-23.21,3.27-3.07,.44-6.16,.72-9.19,1.38-.48,.19-.29,.61-.29,.93-.16,9.69-.3,19.38-.45,29.07-.25,16.43-.5,32.85-.76,49.28-.08,5.3-.17,10.6-.29,15.91-.01,.56,.19,.86,.64,1.15,7.79,4.85,15.56,9.72,23.34,14.58,6.84,4.27,13.67,8.55,20.51,12.82,.36,.23,.75,.41,1.13,.61-15.09,0-30.18,0-45.27,.02-.82,0-.98-.16-.98-.98C.03,91.51,.03,46.25,0,.98,0,.16,.16,0,.98,0c45.27,.03,90.53,.03,135.8,0,.82,0,.98,.16,.98,.98-.04,9.26-.02,18.52-.02,27.78Z"/>
      <path class="cls-3" d="M46.49,137.74c1.88-.59,3.85-.67,5.78-.96,5.31-.8,10.62-1.57,15.93-2.33,5.23-.75,10.47-1.48,15.7-2.23,6.26-.9,12.51-1.82,18.76-2.72,7.55-1.09,15.11-2.17,22.66-3.26,3.31-.48,6.61-.98,9.92-1.41,.81-.1,.7-.58,.71-1.09,.11-6.74,.22-13.48,.34-20.22,.3-15.83,.62-31.65,.91-47.48,.12-6.26,.19-12.52,.3-18.78,0-.35-.25-.8,.23-1.06,0,33.49,0,66.98,.02,100.47,0,.9-.2,1.1-1.1,1.1-30.06-.03-60.12-.02-90.17-.02Z"/>
      <path class="cls-2" d="M58.2,135.05c-.39,.04-.78,.07-1.17,.11-.19-.04-.36-.03-.5,.13-.39,.04-.78,.07-1.17,.11-.19-.04-.37-.03-.5,.14-.97-.05-1.9,.24-2.85,.34-.19-.04-.37-.02-.5,.15-1.15,.13-2.29,.24-3.43,.4-.8,.11-1.17,.02-1.15-1,.28-15.16,.51-30.32,.75-45.48,.12-8.06,.2-16.12,.33-24.18,.12-7.62,.31-15.24,.42-22.86,.01-.72,.19-.87,.9-.97,7.09-.98,14.17-2.05,21.25-3.05,5.41-.77,10.83-1.46,16.24-2.23,7.05-1,14.09-2.05,21.14-3.05,7.09-1,14.19-1.96,21.29-2.94,2.15-.3,4.3-.6,6.45-.92,.83-.13,1.09,.14,1.07,1-.15,6.9-.26,13.8-.37,20.7-.13,7.9-.26,15.8-.4,23.69-.23,13.24-.46,26.49-.73,39.73-.06,2.91-.22,5.82-.14,8.73-.08,.09-.16,.18-.24,.28l-11.51,1.69c-.19-.03-.37-.03-.5,.14-.39,.03-.79,.07-1.18,.1-.19-.04-.37-.03-.5,.15-3.3,.45-6.59,.88-9.89,1.34-1.49,.21-2.98,.45-4.47,.67-.19-.03-.37-.03-.5,.13l-1.17,.11c-.19-.04-.36-.03-.5,.13-2.07,.28-4.14,.55-6.2,.83-.19-.04-.37-.02-.5,.15-3.3,.45-6.59,.88-9.89,1.34-1.49,.21-2.98,.45-4.47,.67-.19-.03-.37-.03-.5,.13-2.07,.28-4.14,.55-6.2,.83-.19-.04-.37-.03-.5,.14-3.27,.44-6.54,.86-9.8,1.31-2.64,.37-5.27,.78-7.9,1.18-.19-.04-.36-.03-.5,.13Z"/>
      <path class="cls-5" d="M2.41,13.4c3.03-.66,6.13-.94,9.19-1.38,7.73-1.12,15.47-2.19,23.21-3.27,8.29-1.16,16.58-2.31,24.87-3.48,8.76-1.23,17.52-2.47,26.28-3.7,1.78-.25,3.55-.49,5.32-.77,.63-.1,1.08,.23,1.55,.52,10.68,6.46,21.36,12.93,32.04,19.4,3.98,2.42,7.95,4.87,11.92,7.31,0,.16,0,.33,0,.49-1.9,.54-3.88,.65-5.82,.95-3.76,.57-7.53,1.08-11.29,1.61-3.57,.51-7.14,1.01-10.71,1.52-3.8,.54-7.6,1.09-11.41,1.62-4.2,.59-8.4,1.14-12.6,1.74-4.27,.61-8.54,1.25-12.82,1.86-4.2,.59-8.4,1.14-12.6,1.74-3.69,.52-7.37,1.05-11.05,1.62-.8,.12-1.4-.22-2.01-.59-8.38-5.13-16.76-10.27-25.13-15.41-6.27-3.85-12.53-7.72-18.8-11.58-.06-.04-.1-.12-.15-.18Z"/>
      <path class="cls-1" d="M136.78,28.52c0-.16,0-.33,0-.49,.29,.07,.58,.14,.67,.49h-.67Z"/>
      <path class="cls-1" d="M134.88,123.89c.08-.09,.16-.18,.24-.28,.13,.08,.22,.2,.11,.34-.12,.14-.25,.07-.35-.06Z"/>
      <path class="cls-1" d="M122.87,125.72c.13-.17,.31-.18,.5-.14-.08,.35-.21,.53-.5,.14Z"/>
      <path class="cls-1" d="M121.2,125.96c.13-.17,.31-.18,.5-.15-.08,.35-.21,.53-.5,.15Z"/>
      <path class="cls-1" d="M106.34,128.1c.14-.16,.31-.17,.5-.13-.08,.36-.22,.52-.5,.13Z"/>
      <path class="cls-1" d="M104.67,128.34c.14-.16,.31-.17,.5-.13-.08,.36-.22,.52-.5,.13Z"/>
      <path class="cls-1" d="M97.96,129.31c.13-.17,.31-.18,.5-.15-.08,.35-.2,.53-.5,.15Z"/>
      <path class="cls-1" d="M83.11,131.45c.14-.16,.31-.17,.5-.13-.08,.36-.22,.52-.5,.13Z"/>
      <path class="cls-1" d="M76.41,132.42c.13-.17,.31-.18,.5-.14-.08,.35-.21,.53-.5,.14Z"/>
      <path class="cls-1" d="M58.2,135.05c.14-.16,.31-.17,.5-.13-.08,.36-.22,.52-.5,.13Z"/>
      <path class="cls-1" d="M56.53,135.29c.14-.16,.31-.17,.5-.13-.08,.36-.22,.52-.5,.13Z"/>
      <path class="cls-1" d="M54.85,135.53c.13-.16,.31-.18,.5-.14-.08,.35-.21,.53-.5,.14Z"/>
      <path class="cls-1" d="M51.5,136.02c.13-.17,.31-.18,.5-.15-.08,.35-.2,.53-.5,.15Z"/>
    </g>
  </g>
</svg>