<?xml version="1.0" encoding="UTF-8"?>
<svg id="Layer_2" data-name="Layer 2" xmlns="http://www.w3.org/2000/svg" viewBox="0 0 234.4 226.73">
  <defs>
    <style>
      .cls-1 {
        fill: #631213;
      }

      .cls-2 {
        fill: #ef4544;
      }

      .cls-3 {
        fill: #d36767;
      }
    </style>
  </defs>
  <g id="Layer_1-2" data-name="Layer 1">
    <g>
      <path class="cls-2" d="M0,13.85c.17,0,.33,0,.5-.01,.85,.36,1.78,.3,2.67,.44,8.04,1.25,16.08,2.47,24.13,3.68,4.86,.73,9.73,1.39,14.58,2.11,6.78,1.01,13.56,2.06,20.34,3.06,7.53,1.11,15.08,2.16,22.61,3.28,11.76,1.74,23.51,3.52,35.27,5.29,7.87,1.18,15.74,2.38,23.61,3.57,0,2,.02,3.99-.02,5.99-.15,7.38-.33,14.77-.49,22.15-.1,4.67-.19,9.34-.29,14.01-.16,7.38-.34,14.76-.5,22.15-.13,5.79-.23,11.57-.36,17.36-.14,6.27-.28,12.53-.42,18.8-.09,3.79-.18,7.58-.28,11.37-.11,4.49-.23,8.98-.33,13.48-.07,3.07-.11,6.14-.15,9.22-.06,4.27-.12,8.54-.17,12.81-.05,.35-.13,.7-.14,1.06-.1,3.1-.2,6.19-.27,9.29-.1,4.65-.15,9.3-.24,13.95-.13,6.57-.29,13.13-.43,19.7-.21,.28-.34,.12-.57-.02-12.06-7.65-24.12-15.28-36.19-22.91-9.24-5.84-18.48-11.67-27.71-17.52-11.12-7.04-22.23-14.09-33.35-21.13-5.12-3.25-10.23-6.51-15.37-9.73-.81-.51-1.1-1.17-1.26-2.03-.86-4.77-1.74-9.54-2.61-14.31-.82-4.54-1.62-9.08-2.44-13.62-.86-4.73-1.74-9.46-2.58-14.2-.73-4.07-1.41-8.15-2.15-12.22-.73-4.03-1.5-8.05-2.23-12.08-.71-3.87-1.39-7.75-2.09-11.62-.86-4.77-1.75-9.54-2.6-14.32-.84-4.7-1.63-9.4-2.48-14.1-.83-4.58-1.71-9.14-2.54-13.72-.84-4.66-1.64-9.32-2.48-13.98-.27-1.51-.61-3.01-.92-4.51-.01-.24-.02-.48-.04-.72Z"/>
      <path class="cls-1" d="M215.52,13.05c-7,2.09-14.05,4.06-20.96,6.47-2.05,.72-4.24,.97-6.22,1.9-.54,.15-1.08,.28-1.61,.44-8.53,2.64-17.07,5.27-25.6,7.92-5.82,1.81-11.67,3.5-17.43,5.48-7.87-1.19-15.74-2.38-23.61-3.57-11.75-1.77-23.51-3.54-35.27-5.29-7.53-1.12-15.07-2.17-22.61-3.28-6.78-1-13.56-2.06-20.34-3.06-4.86-.72-9.73-1.39-14.58-2.11-8.05-1.21-16.09-2.43-24.13-3.68-.89-.14-1.81-.09-2.67-.44,4.26-.53,8.52-1.25,12.79-1.49,1.87-.1,3.67-.97,5.59-.46,.36,.1,.83-.27,1.25-.28,2.15-.03,4.23-.8,6.4-.6,.37,.03,.75-.24,1.14-.26,2.3-.13,4.55-.72,6.88-.62,.76,.03,1.53-.46,2.3-.51,4.71-.27,9.36-1.14,14.05-1.57,1.7-.15,3.44-.29,5.14-.48,1.83-.2,3.66-.93,5.59-.55,.53,.11,1.15-.21,1.72-.35,.7-.17,1.38-.27,2.11-.08,.47,.12,.99,0,1.5-.23,.72-.34,1.51-.47,2.32-.25,.47,.13,.92,.06,1.39-.12,.81-.32,1.65-.63,2.54-.26,.07,.03,.17,.04,.24,.01,1.73-.78,3.68-.1,5.43-.81,.04-.02,.08-.04,.11-.04,1.98,.29,3.86-.73,5.82-.5,.52,.06,.89-.26,1.37-.29,3.08-.18,6.1-.93,9.17-1.06,2.63-.11,5.2-.83,7.77-.83,1.9,0,3.68-.6,5.59-.56,1.7,.04,3.51-.47,5.28-.71,5.61-.77,11.21-1.29,16.89-.67,4.39,.48,8.82,.58,13.23,.87,4.61,.3,9.22,.62,13.82,.91,4.49,.28,8.99,.48,13.47,.84,3.14,.25,6.28,.39,9.42,.67,2.42,.22,4.88,.31,7.31,.42,2.44,.12,4.89,.34,7.32,.5,1.75,.12,3.52,.34,5.31,.33,1.67,0,3.4,.14,5.1,.38,1.49,.21,3.1,.05,4.63,.23,2,.23,4.01,.27,6,.47,1.55,.15,3.18,.04,4.75,.21,1.9,.2,3.8,.15,5.71,.48,1.53,.27,3.21,.1,4.82,.14,.72,.02,1.43,.1,2.15,.15,.27,.02,.45,.14,.44,.44-.92,.01-1.79,.29-2.66,.55-3.35,1.03-6.7,2.09-10.04,3.16-2.07,.66-4.21,1.09-6.19,2.02Z"/>
      <path class="cls-3" d="M231.75,7.87c-3.35,1.03-6.7,2.09-10.04,3.16-2.07,.66-4.21,1.1-6.19,2.02-7,2.09-14.05,4.06-20.96,6.47-2.05,.72-4.24,.97-6.22,1.9,.39,.52,.51,1.04,.5,1.58,.01-.53-.11-1.06-.5-1.58-.54,.15-1.08,.28-1.61,.44-8.53,2.64-17.07,5.27-25.6,7.92-5.82,1.81-11.67,3.5-17.43,5.48,0,2,.02,3.99-.02,5.99-.15,7.38-.33,14.77-.49,22.15-.1,4.67-.19,9.34-.29,14.01-.16,7.38-.34,14.76-.5,22.15-.13,5.79-.23,11.57-.36,17.36-.14,6.27-.28,12.53-.42,18.8-.09,3.79-.18,7.58-.28,11.37-.11,4.49-.23,8.98-.33,13.48-.07,3.07-.11,6.14-.15,9.22-.06,4.27-.12,8.54-.17,12.81-.05,.35-.13,.7-.14,1.06-.1,3.1-.2,6.19-.27,9.29-.1,4.65-.15,9.3-.24,13.95-.13,6.57-.29,13.13-.43,19.7,.49-.23,.75-.71,1.05-1.11,2.38-3.13,4.72-6.3,7.11-9.42,2.22-2.91,4.42-5.83,6.74-8.66,3.97-4.83,7.74-9.82,11.52-14.8,.34-.39,.69-.77,1.01-1.18,5.92-7.78,12.08-15.38,17.86-23.26,2.07-2.82,4.29-5.51,6.49-8.23,1.91-2.36,3.73-4.79,5.58-7.19,6.35-8.21,12.7-16.43,19.07-24.63,.66-.85,1.03-1.76,1.17-2.82,.34-2.61,.73-5.21,1.11-7.81,2.53-17.15,5.06-34.3,7.59-51.45,2.47-16.77,4.95-33.53,7.39-50.3,.41-2.8,1.02-5.57,1.1-8.41-.92,.01-1.79,.29-2.66,.55Z"/>
    </g>
  </g>
</svg>