<?xml version="1.0" encoding="UTF-8"?>
<svg id="Layer_2" data-name="Layer 2" xmlns="http://www.w3.org/2000/svg" viewBox="0 0 311.36 360.07">
  <defs>
    <style>
      .cls-1 {
        fill: #94111e;
      }

      .cls-2 {
        fill: #a97c50;
      }

      .cls-3 {
        fill: #c49a6c;
      }

      .cls-4 {
        fill: #2bb673;
      }

      .cls-5 {
        fill: #2b0000;
      }

      .cls-6 {
        fill: #231f20;
      }
    </style>
  </defs>
  <g id="Layer_1-2" data-name="Layer 1">
    <polygon class="cls-4" points="0 124.18 154.73 90 154.73 0 0 63.19 0 124.18"/>
    <polygon class="cls-2" points="311.36 124.6 154.73 90 154.73 0 311.36 63.97 311.36 124.6"/>
    <polygon class="cls-3" points="308.24 124.02 154.39 141.51 .32 124.02 154.07 90.01 308.24 124.02"/>
    <polygon class="cls-1" points="7.61 309.79 154.73 360.07 154.73 300.07 7.61 268.18 7.61 309.79"/>
    <polygon class="cls-5" points="301.84 309.79 154.73 360.07 154.73 300.07 301.84 268.18 301.84 309.79"/>
    <polygon class="cls-1" points="301.84 268.18 151.17 250.85 4.39 267.49 154.73 300.07 301.84 268.18"/>
    <g>
      <path class="cls-6" d="M5.88,160.59v20.69l13.33-.59v-21.53l3.78-.41v52.01l-3.78-.16v-24.12l-13.33,.37v23.19l-3.39-.14v-48.95l3.39-.36Z"/>
      <path class="cls-6" d="M35.57,163.33l-9.32,.85v-5.76l23.59-2.53v6.15l-10.11,.92v48.52l-4.15-.18v-47.97Z"/>
      <path class="cls-6" d="M85.33,186.48c-.3-8.54-.66-18.79-.6-26.42l-.18,.02c-1.38,7.27-3.05,14.96-5.05,23.4l-6.87,29.04-3.71-.15-5.98-27.86c-1.72-8.08-3.16-15.43-4.17-22.17h-.11c-.11,7.16-.37,16.78-.69,25.37l-.95,24.5-4.3-.18,2.42-56.71,5.85-.63,6.25,27.68c1.55,7.19,2.84,13.65,3.79,19.8h.17c.96-5.97,2.32-12.51,4.04-20.08l7.02-29.68,6.72-.72,2.6,61.98-5.23-.22-1.03-26.97Z"/>
      <path class="cls-6" d="M100.11,150.5l5.72-.61v57.41l20.08,.52v7.3l-25.8-1.09v-63.53Z"/>
    </g>
    <g>
      <path class="cls-6" d="M220.94,209.71c-2.51,1.48-7.63,3.08-14.36,3.35-16.48,.65-29.74-10.35-29.74-31.6s13.26-32.63,31.32-30.71c6.85,.73,11.06,2.74,12.86,3.97l-1.64,6.03c-2.61-1.63-6.38-3.02-10.97-3.44-13.5-1.23-22.95,7.44-22.95,24.14,0,15.56,8.57,25.35,22.61,25.01,4.35-.11,8.69-1.18,11.46-2.72l1.41,5.97Z"/>
      <path class="cls-6" d="M228.37,202.3c2.91,1.99,7.1,3.58,11.4,3.47,6.22-.15,9.77-4.04,9.77-9.54,0-5.1-2.45-8.06-8.78-11.08-7.93-3.51-13-8.56-13-16.68,0-8.97,6.46-14.95,15.81-13.96,4.75,.5,8.12,2.15,10.12,3.71l-1.59,5.55c-1.47-1.09-4.52-2.98-8.73-3.37-6.53-.59-9.07,3.8-9.07,7.67,0,5.3,2.97,8.05,9.55,11.34,7.78,3.87,11.61,8.38,11.61,16.26,0,8.28-5.11,15.65-16.12,16.09-4.68,.19-9.93-1.22-12.64-3.18l1.66-6.28Z"/>
      <path class="cls-6" d="M262.35,201.77c2.45,1.83,5.97,3.29,9.6,3.2,5.26-.13,8.26-3.7,8.26-8.76,0-4.69-2.07-7.41-7.42-10.18-6.69-3.2-10.94-7.82-10.94-15.26,0-8.22,5.43-13.75,13.31-12.91,4.02,.43,6.87,1.91,8.57,3.34l-1.35,5.12c-1.25-1-3.83-2.72-7.39-3.04-5.51-.5-7.65,3.55-7.65,7.09,0,4.86,2.5,7.38,8.06,10.37,6.58,3.54,9.84,7.68,9.84,14.95,0,7.63-4.34,14.41-13.64,14.78-3.95,.16-8.36-1.15-10.63-2.95l1.39-5.75Z"/>
    </g>
  </g>
</svg>