<?xml version="1.0" encoding="UTF-8"?>
<svg id="Layer_2" data-name="Layer 2" xmlns="http://www.w3.org/2000/svg" viewBox="0 0 257.88 226.95">
  <defs>
    <style>
      .cls-1 {
        fill: #575756;
      }

      .cls-2 {
        fill: #626362;
      }

      .cls-3 {
        fill: #a3a3a3;
      }

      .cls-4 {
        fill: #056b82;
      }

      .cls-5 {
        fill: #43c7f3;
      }
    </style>
  </defs>
  <g id="Layer_2-2" data-name="Layer 2">
    <g>
      <path class="cls-5" d="M150.44,226.29c-8.6-4.88-17.19-9.75-25.79-14.64-10.48-5.96-20.97-11.91-31.44-17.89-11.99-6.84-23.96-13.71-35.96-20.54-8.29-4.73-16.6-9.42-24.9-14.14-1.67-.95-3.3-1.94-4.96-2.89-.67-.38-.86-.96-.98-1.61-1.08-5.68-2.18-11.37-3.24-17.05-.92-4.9-1.78-9.81-2.71-14.72-1.03-5.45-2.11-10.89-3.15-16.34-.8-4.2-1.54-8.4-2.33-12.6-.91-4.82-1.86-9.64-2.77-14.46-.8-4.2-1.56-8.4-2.35-12.59-.79-4.2-1.61-8.39-2.41-12.58-.67-3.53-1.32-7.06-1.98-10.59-.67-3.53-1.35-7.05-2.02-10.58-.8-4.27-1.58-8.55-2.39-12.83-.31-1.64-.68-3.26-1.02-4.89-.01-.24-.03-.48-.04-.72,.19,0,.38,0,.56,0,.11,.06,.21,.16,.33,.17,8.5,1.23,17,2.45,25.5,3.67,5.84,.83,11.67,1.66,17.51,2.49,9.95,1.54,19.93,2.94,29.9,4.36,15.62,2.22,31.23,4.54,46.84,6.8,11.79,1.71,23.57,3.41,35.36,5.11,.19,.45,.45,.9,.32,1.38-.44,1.57-.09,3.17-.18,4.75-.24,4-.09,8.02-.25,12.03-.05,1.31,0,2.62-.04,3.93-.12,3.85-.29,7.69-.39,11.53-.07,2.7-.04,5.4-.12,8.1-.11,3.89-.32,7.77-.39,11.65-.06,3.25-.16,6.51-.24,9.76-.12,4.48-.22,8.97-.32,13.45-.08,3.37-.21,6.74-.25,10.12-.05,4.57-.21,9.13-.33,13.69-.08,3.29-.18,6.59-.24,9.88-.09,4.56-.21,9.13-.33,13.69-.09,3.29-.19,6.59-.24,9.88-.08,4.44-.28,8.89-.33,13.33-.04,3.34-.28,6.67-.25,10,.03,4.77-.23,9.52-.32,14.29-.07,3.93,0,7.87-.21,11.79-.09,1.7,.1,3.41-.18,5.11-.09,.53-.33,.68-.81,.72,0,0,.02-.01,.02-.01-.16-.26-.33-.27-.51-.01Z"/>
      <path class="cls-4" d="M150.92,226.32c.48-.05,.72-.19,.81-.72,.28-1.7,.09-3.41,.18-5.11,.2-3.92,.14-7.86,.21-11.79,.09-4.76,.35-9.52,.32-14.29-.02-3.33,.21-6.66,.25-10,.05-4.44,.25-8.88,.33-13.33,.06-3.29,.15-6.58,.24-9.88,.12-4.56,.24-9.12,.33-13.69,.06-3.29,.16-6.58,.24-9.88,.11-4.56,.28-9.12,.33-13.69,.04-3.37,.17-6.74,.25-10.12,.1-4.48,.2-8.97,.32-13.45,.09-3.25,.18-6.5,.24-9.76,.07-3.89,.28-7.77,.39-11.65,.07-2.7,.04-5.4,.12-8.1,.1-3.85,.27-7.69,.39-11.53,.04-1.31-.01-2.62,.04-3.93,.16-4.01,.01-8.03,.25-12.03,.09-1.58-.26-3.18,.18-4.75,.13-.48-.13-.94-.32-1.38,.76-.16,1.54-.27,2.28-.49,8.46-2.48,16.91-4.97,25.36-7.46,6.7-1.98,13.39-3.98,20.08-5.97,3.3-.98,6.59-1.95,9.89-2.92,2.13-.42,4.16-1.14,6.22-1.74,6.45-1.9,12.9-3.82,19.34-5.73,2.4-.69,4.8-1.37,7.2-2.06,3.47-1,6.95-1.99,10.42-2.99,.65,1.22,0,2.41-.18,3.59-1.69,10.84-3.46,21.66-5.19,32.49-1.37,8.59-2.74,17.17-4.1,25.76-1.97,12.37-3.94,24.74-5.9,37.11-1.07,6.78-2.13,13.56-3.19,20.34-.16,1-.77,1.75-1.43,2.51-6.44,7.35-12.88,14.7-19.3,22.05-7.16,8.2-14.29,16.41-21.45,24.61-7.45,8.54-14.91,17.08-22.37,25.62-6.89,7.89-13.78,15.77-20.67,23.65-.3,.34-.61,.68-.95,.99-.55,.51-.97,.51-1.15-.28Z"/>
      <path class="cls-2" d="M29.74,11.43c-.03,.41-.27,.68-.71,.68-.99,0-2.02,.32-2.94-.28,1.22-.1,2.41-.46,3.66-.4Z"/>
      <path class="cls-3" d="M150.44,226.29c.18-.25,.35-.24,.51,.01-.17,0-.34,0-.51-.01Z"/>
      <path class="cls-1" d="M257.32,7.73c-2.76-.19-5.53-.32-8.28-.61-1.82-.19-3.64-.06-5.47-.2-1.53-.12-3.08-.36-4.61-.34-1.94,.03-3.89-.1-5.78-.28-3.27-.31-6.55-.44-9.82-.67-3.54-.25-7.08-.55-10.63-.82-5.56-.42-11.13-.74-16.7-1.1-5.44-.35-10.88-.69-16.31-1.05-6.31-.41-12.63-.83-18.94-1.24-5.52-.36-11.05-.67-16.57-1.1-5.36-.42-10.69-.51-16.05,.21-5.7,.77-11.44,1.3-17.17,1.93-5.51,.6-11.02,1.2-16.52,1.8-5.72,.63-11.45,1.27-17.17,1.9-5.46,.6-10.93,1.18-16.39,1.78-5.64,.62-11.27,1.26-16.91,1.89-4.65,.52-9.31,1.05-13.96,1.58l-.29,.02s0,0,0,.01l-.55,.06c.04,.21,.13,.36,.26,.48-.11,.07-.24,.12-.41,.13-.99,0-2.02,.32-2.94-.28-.35,.01-.7,0-1.04,.05-8.16,.92-16.32,1.84-24.48,2.76,.11,.06,.21,.16,.33,.17,8.5,1.23,17,2.45,25.5,3.67,5.84,.83,11.67,1.66,17.51,2.49,9.95,1.54,19.93,2.94,29.9,4.36,15.62,2.22,31.23,4.54,46.84,6.8,11.79,1.71,23.57,3.41,35.36,5.11,.76-.16,1.54-.27,2.28-.49,8.46-2.48,16.91-4.97,25.36-7.46,6.7-1.98,13.39-3.98,20.08-5.97,3.3-.98,6.59-1.95,9.89-2.92,2.13-.42,4.16-1.14,6.22-1.74,6.45-1.9,12.9-3.82,19.34-5.73,.05-.47-.11-.72-.35-.86,.6-.08,1.36,0,1.27,.99,2.42-.69,4.85-1.38,7.27-2.08,3.51-1.01,7.01-2.01,10.52-3.02-.12-.22-.34-.21-.56-.22ZM31.18,12.01c-.18,.06-.35,.04-.49-.02,.28-.05,.56-.07,.84-.07-.12,.03-.24,.06-.35,.09Zm154.65-1.8c.11,0,.22,.03,.32,.07,.12,.05,.24,.08,.36,.12-.23-.04-.46-.11-.68-.19Zm49.45,1.62c-.06-.02-.12-.03-.18-.04,.37,0,.72,.06,1.06,.16,.17,.05,.34,.1,.51,.13-.47-.02-.92-.11-1.39-.25Z"/>
    </g>
  </g>
</svg>