<svg xmlns="http://www.w3.org/2000/svg" version="1.1" xmlns:xlink="http://www.w3.org/1999/xlink" xmlns:svgjs="http://svgjs.dev/svgjs" width="2000" height="762" viewBox="0 0 2000 762"><g transform="matrix(1,0,0,1,-1.2121212121212466,0.11941179218484876)"><svg viewBox="0 0 396 151" data-background-color="#ffffff" preserveAspectRatio="xMidYMid meet" height="762" width="2000" xmlns="http://www.w3.org/2000/svg" xmlns:xlink="http://www.w3.org/1999/xlink"><g id="tight-bounds" transform="matrix(1,0,0,1,0.2400000000000091,-0.023662966692796772)"><svg viewBox="0 0 395.52 151.0473259333856" height="151.0473259333856" width="395.52"><g><svg viewBox="0 0 395.52 151.0473259333856" height="151.0473259333856" width="395.52"><g transform="matrix(1,0,0,1,0,93.35330714501367)"><svg viewBox="0 0 395.52 57.69401878837191" height="57.69401878837191" width="395.52"><g id="textblocktransform"><svg viewBox="0 0 395.52 57.69401878837191" height="57.69401878837191" width="395.52" id="textblock"><g><svg viewBox="0 0 395.52 57.69401878837191" height="57.69401878837191" width="395.52"><g transform="matrix(1,0,0,1,0,0)"><svg width="395.52" viewBox="4.15 -37.99 330.02000000000004 48.150000000000006" height="57.69401878837191" data-palette-color="#4d7e3e"><path d="M4.15-35.55L4.15 0 8.84 0 8.84-13.92 15.92-13.92Q21.78-13.92 24.93-16.91 28.08-19.9 28.08-24.78L28.08-24.78Q28.08-29.66 24.93-32.6 21.78-35.55 15.92-35.55L15.92-35.55 4.15-35.55ZM15.92-17.77L8.84-17.77 8.84-31.69 15.92-31.69Q20.07-31.69 21.73-29.7 23.39-27.71 23.39-24.78L23.39-24.78Q23.39-21.85 21.73-19.81 20.07-17.77 15.92-17.77L15.92-17.77ZM33.44-35.55L33.44 0 37.89 0 37.89-25.63Q37.89-26.37 37.86-27.28 37.84-28.2 37.74-28.93L37.74-28.93 37.94-28.93Q38.08-28.2 38.38-27.28 38.67-26.37 38.96-25.63L38.96-25.63 49.07 0 53.12 0 63.23-25.63Q63.52-26.37 63.82-27.28 64.11-28.2 64.26-28.93L64.26-28.93 64.45-28.93Q64.35-28.2 64.33-27.28 64.3-26.37 64.3-25.63L64.3-25.63 64.3 0 68.85 0 68.85-35.55 62.79-35.55 52.24-8.81Q51.95-8.08 51.69-7.29 51.44-6.49 51.24-5.76L51.24-5.76 51.05-5.76Q50.85-6.49 50.6-7.29 50.34-8.08 50.05-8.81L50.05-8.81 39.5-35.55 33.44-35.55ZM84.96-13.28L84.96 0 89.64 0 89.64-13.28 101.92-35.55 96.85-35.55 88.74-20.51Q88.35-19.78 88.02-19.17 87.69-18.55 87.42-17.9L87.42-17.9 87.28-17.9Q87.01-18.55 86.68-19.17 86.35-19.78 85.96-20.51L85.96-20.51 77.95-35.55 72.68-35.55 84.96-13.28ZM105.95-32.23L106.56-23.58 110.22-23.58 110.83-32.23 110.83-35.55 105.95-35.55 105.95-32.23ZM119.03-7.57L114.49-7.57 114.49-7.45Q114.49-3.74 117.18-1.5 119.86 0.73 124.99 0.73L124.99 0.73Q130.12 0.73 132.68-1.46 135.24-3.66 135.24-7.08L135.24-7.08Q135.24-10.5 132.99-12.33 130.73-14.16 126.58-15.14L126.58-15.14Q122.43-16.11 121.01-16.97 119.59-17.82 119.59-19.29L119.59-19.29Q119.59-20.75 120.83-21.73 122.06-22.71 124.75-22.71L124.75-22.71Q127.43-22.71 128.71-21.66 129.99-20.61 129.99-18.77L129.99-18.77 129.99-18.55 134.51-18.55 134.51-18.68Q134.51-22.24 131.83-24.33 129.14-26.42 124.75-26.42L124.75-26.42Q120.35-26.42 117.73-24.32 115.1-22.22 115.1-19.04L115.1-19.04Q115.1-15.87 117.54-14.1 119.99-12.33 124.14-11.35L124.14-11.35Q128.29-10.38 129.53-9.46 130.78-8.54 130.78-6.84L130.78-6.84Q130.78-5.13 129.23-4.05 127.68-2.98 124.99-2.98L124.99-2.98Q122.3-2.98 120.67-4.1 119.03-5.22 119.03-7.45L119.03-7.45 119.03-7.57ZM153.01-25.68L153.01 10.16 157.55 10.16 157.55-3.03Q158.68-1.44 160.57-0.48 162.46 0.49 165.15 0.49L165.15 0.49Q170.03 0.49 172.96-3.17 175.89-6.84 175.89-12.45L175.89-12.45 175.89-13.23Q175.89-18.85 172.96-22.51 170.03-26.17 165.15-26.17L165.15-26.17Q162.46-26.17 160.45-25.05 158.43-23.93 157.46-22.34L157.46-22.34 157.31-22.34 157.11-25.68 153.01-25.68ZM157.55-7.62L157.55-7.62 157.55-18.07Q158.31-19.78 160.02-21.12 161.73-22.46 164.17-22.46L164.17-22.46Q167.83-22.46 169.54-19.8 171.25-17.14 171.25-13.23L171.25-13.23 171.25-12.45Q171.25-8.54 169.54-5.88 167.83-3.22 164.17-3.22L164.17-3.22Q161.73-3.22 160.02-4.57 158.31-5.91 157.55-7.62ZM180.04-13.23L180.04-12.45Q180.04-6.64 183.33-2.95 186.63 0.73 192.15 0.73L192.15 0.73Q197.66 0.73 200.96-2.95 204.25-6.64 204.25-12.45L204.25-12.45 204.25-13.23Q204.25-19.04 200.96-22.73 197.66-26.42 192.15-26.42L192.15-26.42Q186.63-26.42 183.33-22.73 180.04-19.04 180.04-13.23L180.04-13.23ZM184.67-12.45L184.67-13.23Q184.67-17.21 186.55-19.96 188.43-22.71 192.15-22.71L192.15-22.71Q195.86-22.71 197.74-19.96 199.62-17.21 199.62-13.23L199.62-13.23 199.62-12.45Q199.62-8.47 197.74-5.73 195.86-2.98 192.15-2.98L192.15-2.98Q188.43-2.98 186.55-5.73 184.67-8.47 184.67-12.45L184.67-12.45ZM209.94-25.68L209.94 0 214.48 0 214.48-18.07Q215.21-19.78 216.75-20.92 218.29-22.07 220.49-22.07L220.49-22.07Q221.12-22.07 221.66-22.02 222.2-21.97 222.69-21.88L222.69-21.88 222.69-26.07Q222.44-26.17 221.86-26.29 221.27-26.42 220.73-26.42L220.73-26.42Q218.53-26.42 216.95-25.21 215.36-24 214.38-22.39L214.38-22.39 214.24-22.39 214.04-25.68 209.94-25.68ZM224.64-25.68L224.64-22.22 239.28-22.22 239.28-25.68 224.64-25.68ZM229.23-23.58L229.23-6.35Q229.23-2.69 230.9-0.98 232.57 0.73 235.38 0.73L235.38 0.73Q236.6 0.73 237.62 0.51 238.65 0.29 239.28 0L239.28 0 239.28-3.71Q238.6-3.47 237.94-3.32 237.28-3.17 236.6-3.17L236.6-3.17Q235.13-3.17 234.45-3.91 233.77-4.64 233.77-6.35L233.77-6.35 233.77-32.03 229.23-32.03 229.23-24.32 229.23-23.58ZM245.29-29.3L245.29 0 249.83 0 249.83-23.68 249.83-24.22 249.83-29.3Q249.83-31.74 251.02-32.96 252.22-34.18 254.42-34.18L254.42-34.18Q255.05-34.18 255.66-34.11 256.27-34.03 256.81-33.94L256.81-33.94 257.06-37.6Q256.32-37.79 255.52-37.89 254.71-37.99 253.93-37.99L253.93-37.99Q249.93-37.99 247.61-35.77 245.29-33.54 245.29-29.3L245.29-29.3ZM241.11-25.68L241.11-22.22 255.39-22.22 255.39-25.68 248.12-25.68 247-25.68 241.11-25.68ZM257.22-13.23L257.22-12.45Q257.22-6.64 260.52-2.95 263.82 0.73 269.33 0.73L269.33 0.73Q274.85 0.73 278.15-2.95 281.44-6.64 281.44-12.45L281.44-12.45 281.44-13.23Q281.44-19.04 278.15-22.73 274.85-26.42 269.33-26.42L269.33-26.42Q263.82-26.42 260.52-22.73 257.22-19.04 257.22-13.23L257.22-13.23ZM261.86-12.45L261.86-13.23Q261.86-17.21 263.74-19.96 265.62-22.71 269.33-22.71L269.33-22.71Q273.04-22.71 274.92-19.96 276.8-17.21 276.8-13.23L276.8-13.23 276.8-12.45Q276.8-8.47 274.92-5.73 273.04-2.98 269.33-2.98L269.33-2.98Q265.62-2.98 263.74-5.73 261.86-8.47 261.86-12.45L261.86-12.45ZM287.32-37.5L287.32 0 291.86 0 291.86-37.5 287.32-37.5ZM299.5-25.68L299.5 0 304.04 0 304.04-25.68 299.5-25.68ZM298.94-33.45L298.94-33.45Q298.94-32.3 299.67-31.52 300.41-30.74 301.77-30.74L301.77-30.74Q303.14-30.74 303.87-31.52 304.61-32.3 304.61-33.45L304.61-33.45Q304.61-34.59 303.87-35.38 303.14-36.16 301.77-36.16L301.77-36.16Q300.41-36.16 299.67-35.38 298.94-34.59 298.94-33.45ZM309.95-13.23L309.95-12.45Q309.95-6.64 313.25-2.95 316.54 0.73 322.06 0.73L322.06 0.73Q327.58 0.73 330.87-2.95 334.17-6.64 334.17-12.45L334.17-12.45 334.17-13.23Q334.17-19.04 330.87-22.73 327.58-26.42 322.06-26.42L322.06-26.42Q316.54-26.42 313.25-22.73 309.95-19.04 309.95-13.23L309.95-13.23ZM314.59-12.45L314.59-13.23Q314.59-17.21 316.47-19.96 318.35-22.71 322.06-22.71L322.06-22.71Q325.77-22.71 327.65-19.96 329.53-17.21 329.53-13.23L329.53-13.23 329.53-12.45Q329.53-8.47 327.65-5.73 325.77-2.98 322.06-2.98L322.06-2.98Q318.35-2.98 316.47-5.73 314.59-8.47 314.59-12.45L314.59-12.45Z" opacity="1" transform="matrix(1,0,0,1,0,0)" fill="#4d7e3e" class="wordmark-text-0" data-fill-palette-color="primary" id="text-0"></path></svg></g></svg></g></svg></g></svg></g><g transform="matrix(1,0,0,1,147.68894221256267,0)"><svg viewBox="0 0 100.14211557487464 79.73313396552999" height="79.73313396552999" width="100.14211557487464"><g><svg xmlns="http://www.w3.org/2000/svg" xmlns:xlink="http://www.w3.org/1999/xlink" version="1.1" x="8" y="0" viewBox="7.000208292296227 9.999654476711726 85.49839512959292 81.01834552328827" enable-background="new 0 0 100 100" xml:space="preserve" height="79.73313396552999" width="84.14211557487464" class="icon-icon-0" data-fill-palette-color="accent" id="icon-0"><g fill="#4d7e3e" data-fill-palette-color="accent"><g fill="#4d7e3e" data-fill-palette-color="accent"><path d="M65.672 12.42C59.651 7.099 52.585 11.96 50.417 13.707V40.783A0.669 0.669 0 1 1 49.077 40.783V13.707C46.912 11.962 39.847 7.096 33.825 12.42 26.518 18.873 26.96 28.855 33.221 35.118L49.748 51.642 65.861 35.529C72.466 28.927 73.342 19.194 65.672 12.42" fill="#4d7e3e" data-fill-palette-color="accent"></path></g><g fill="#4d7e3e" data-fill-palette-color="accent"><path d="M90.079 36.824C95.399 42.846 90.536 49.914 88.79 52.08H61.716A0.672 0.672 0 0 0 61.716 53.422H88.79C90.536 55.585 95.402 62.652 90.079 68.674 83.625 75.979 73.642 75.538 67.381 69.278L50.854 52.75 66.969 36.634C73.572 30.031 83.301 29.155 90.079 36.824" fill="#4d7e3e" data-fill-palette-color="accent"></path></g><g fill="#4d7e3e" data-fill-palette-color="accent"><path d="M9.418 68.672C4.1 62.65 8.961 55.581 10.708 53.418H37.784A0.67 0.67 0 0 0 37.784 52.078H10.708C8.961 49.911 4.097 42.844 9.421 36.824 15.874 29.52 25.856 29.959 32.119 36.22L48.643 52.747 32.53 68.86C25.927 75.465 16.196 76.34 9.418 68.672" fill="#4d7e3e" data-fill-palette-color="accent"></path></g><g fill="#4d7e3e" data-fill-palette-color="accent"><path d="M49.751 91.018C49.196 91.018 48.747 90.568 48.747 90.014V61.699A1.005 1.005 0 1 1 50.755 61.699V90.013C50.755 90.567 50.307 91.018 49.751 91.018" fill="#4d7e3e" data-fill-palette-color="accent"></path></g></g></svg></g></svg></g><g><rect width="147.68894221256267" height="5.202906154562768" y="73.53022781096722" x="247.83105778743732" fill="#4d7e3e" data-fill-palette-color="accent"></rect><rect width="147.68894221256267" height="5.202906154562768" y="73.53022781096722" x="0" fill="#4d7e3e" data-fill-palette-color="accent"></rect><rect width="147.68894221256267" height="5.202906154562768" y="63.12441550184168" x="247.83105778743732" fill="#4d7e3e" data-fill-palette-color="accent"></rect><rect width="147.68894221256267" height="5.202906154562768" y="63.12441550184168" x="0" fill="#4d7e3e" data-fill-palette-color="accent"></rect></g></svg></g><defs></defs></svg><rect width="395.52" height="151.0473259333856" fill="none" stroke="none" visibility="hidden"></rect></g></svg></g></svg>